<?xml version="1.0" encoding="UTF-8"?> <svg xmlns="http://www.w3.org/2000/svg" width="281" height="37" viewBox="0 0 281 37" fill="none"><g clip-path="url(#clip0_62_1884)"><path d="M3.02199 22.8436C0.996612 20.2892 -0.0473585 17.2209 -0.000438486 13.9647C0.105132 6.80782 5.86847 0.698041 13.1215 0.0575308C13.5634 0.0191769 14.0091 0 14.4509 0C22.4195 0 28.9023 6.35908 28.9023 14.1756C28.9023 17.3513 27.8505 20.3544 25.8681 22.8589L14.4548 37L3.02199 22.8436Z" fill="#D90110"></path><path d="M8.91041 5.49609H19.9874C21.7704 6.59685 23.1936 8.20771 24.0382 10.1254H4.86356C5.70812 8.21155 7.12745 6.59685 8.91432 5.49609H8.91041ZM5.84888 17.8537C4.78145 18.0186 3.87433 17.1288 4.05028 16.0856C4.16367 15.3952 4.77363 14.8544 5.48525 14.8084C6.43538 14.7471 7.22129 15.5141 7.15482 16.45C7.1079 17.148 6.55268 17.7463 5.84888 17.8537ZM11.1548 26.5946L9.50864 24.5541V12.5686H11.1548V26.5946ZM15.272 29.6552L14.447 30.6754L13.622 29.6552V12.5686H15.2681V29.6552H15.272ZM19.3892 24.5541L17.7431 26.5946V12.5686H19.3892V24.5503V24.5541ZM23.5573 17.8576C22.4898 18.0225 21.5827 17.1327 21.7587 16.0894C21.8721 15.3991 22.482 14.8583 23.1936 14.8123C24.1438 14.7509 24.9297 15.518 24.8632 16.4538C24.8163 17.1518 24.2611 17.7502 23.5573 17.8576Z" fill="white"></path><path d="M43.5693 10.3979H34.4434V5.49243H58.1497V10.3941H49.0707V36.981H43.5693V10.3979Z" fill="black"></path><path d="M86.2583 36.981H80.2955L74.3797 25.2408H67.8695V36.981H62.3682V5.49243H78.8293C83.185 5.49243 85.2495 7.51752 85.2495 11.7901V18.8051C85.2495 22.5829 83.6464 24.608 80.2525 25.0107L86.2583 36.9771V36.981ZM78.0512 20.4274C79.2906 20.4274 79.7481 19.9787 79.7481 18.7169V12.0625C79.7481 10.8466 79.2906 10.3979 78.0512 10.3979H67.8695V20.4274H78.0512Z" fill="black"></path><path d="M90.9346 30.6833V5.49243H96.4359V30.3688C96.4359 31.5846 96.8934 32.0333 98.1798 32.0333H107.259C108.498 32.0333 108.956 31.5846 108.956 30.3688V5.49243H114.457V30.6833C114.457 34.9559 112.393 36.981 108.037 36.981H97.3509C92.9951 36.981 90.9307 34.9559 90.9307 30.6833H90.9346Z" fill="black"></path><path d="M120.1 30.6833V11.7901C120.1 7.51752 122.164 5.49243 126.52 5.49243H136.791C141.147 5.49243 143.212 7.51752 143.212 11.7901V16.3312H137.71V12.1046C137.71 10.8888 137.253 10.4401 136.013 10.4401H127.345C126.062 10.4401 125.601 10.8888 125.601 12.1046V30.3688C125.601 31.5846 126.058 32.0333 127.345 32.0333H136.013C137.253 32.0333 137.71 31.5846 137.71 30.3688V26.1422H143.212V30.6833C143.212 34.9099 141.147 36.981 136.791 36.981H126.52C122.164 36.981 120.1 34.9137 120.1 30.6833Z" fill="black"></path><path d="M168.2 36.981L159.579 22.3605L154.12 28.7924V36.9771H148.709V5.49243H154.12V21.5052L167.235 5.49243H173.792L163.246 17.9958L174.437 36.9771H168.2V36.981Z" fill="black"></path><path d="M175.626 30.6832V26.9936H181.037V30.4569C181.037 31.7149 181.495 32.1675 182.734 32.1675H191.446C192.685 32.1675 193.143 31.7188 193.143 30.4569V26.6791C193.143 25.2408 192.545 24.7882 191.031 24.4737L182.32 22.5829C178.469 21.7276 175.716 20.3775 175.716 16.1049V11.7862C175.716 7.51361 177.78 5.48853 182.136 5.48853H191.72C196.075 5.48853 198.14 7.51361 198.14 11.7862V15.1614H192.775V12.0125C192.775 10.7545 192.318 10.3019 191.031 10.3019H182.961C181.679 10.3019 181.217 10.7507 181.217 12.0125V15.3416C181.217 16.7799 181.812 17.2325 183.372 17.5892L192.04 19.434C195.938 20.2893 198.644 21.6393 198.644 25.912V30.6794C198.644 34.952 196.58 36.9771 192.224 36.9771H182.042C177.687 36.9771 175.622 34.952 175.622 30.6794L175.626 30.6832Z" fill="black"></path><path d="M210.476 10.3979H201.35V5.49243H225.056V10.3941H215.977V36.981H210.476V10.3979Z" fill="black"></path><path d="M227.902 30.6833V11.7901C227.902 7.51752 229.967 5.49243 234.323 5.49243H245.556C249.912 5.49243 251.976 7.51752 251.976 11.7901V30.6833C251.976 34.9559 249.912 36.981 245.556 36.981H234.323C229.967 36.981 227.902 34.9559 227.902 30.6833ZM244.778 32.0333C246.017 32.0333 246.475 31.5846 246.475 30.3688V12.1046C246.475 10.8888 246.017 10.4401 244.778 10.4401H235.148C233.865 10.4401 233.404 10.8888 233.404 12.1046V30.3688C233.404 31.5846 233.861 32.0333 235.148 32.0333H244.778Z" fill="black"></path><path d="M258.072 5.49243H274.58C278.889 5.49243 281 7.55971 281 11.7901V19.5721C281 23.7987 278.893 25.8699 274.58 25.8699H263.574V36.981H258.072V5.49243ZM273.802 20.9222C274.995 20.9222 275.499 20.4274 275.499 19.2576V12.1046C275.499 10.9809 274.995 10.4401 273.802 10.4401H263.578V20.9222H273.802Z" fill="black"></path></g><defs><clipPath id="clip0_62_1884"><rect width="281" height="37" fill="white"></rect></clipPath></defs></svg> 